<?xml version="1.0" encoding="UTF-8"?>
<svg width="1200pt" height="1200pt" version="1.1" viewBox="0 0 1200 1200" xmlns="http://www.w3.org/2000/svg">
 <path d="m600.45 761.94 24.98-28.551h-50.855zm39.258-44.609 14.277-16.059h-107.07l13.383 16.059zm28.551-32.121 13.383-15.168h-163.28l14.277 15.168zm27.66-31.227 14.277-16.059h-220.38l14.277 16.059h191.83zm28.551-32.121 14.277-16.059h-276.59l14.277 16.059h248.04zm27.66-32.121 14.277-15.168h-332.8l14.277 15.168h304.25zm28.551-31.227 14.277-16.059h-389.01l13.383 16.059zm28.551-32.121 13.383-15.168h-445.22l14.277 15.168h417.56zm27.66-31.227 17.844-19.629h-508.57l16.953 19.629zm-491.62-31.227h510.35v-24.98h-510.35z" fill="#5c5b7e" fill-rule="evenodd"/>
</svg>
